<svg class="icon" xmlns="http://www.w3.org/2000/svg" viewBox="0 0 512 512" width="512" height="512"><g id="Out_line" data-name="Out line"><path d="M440,144H400V120A104.01241,104.01241,0,0,0,263.99524,21.04236,104.00418,104.00418,0,0,0,128,120v24H88a7.99977,7.99977,0,0,0-8,8V488a7.99977,7.99977,0,0,0,8,8H440a7.99977,7.99977,0,0,0,8-8V152A7.99977,7.99977,0,0,0,440,144Zm-8,317.57812-16-24V176H400V437.57812l-16,24V160h48ZM323.96307,71.47858A56.09377,56.09377,0,0,1,352,120v24H336V120A103.35252,103.35252,0,0,0,323.96307,71.47858ZM408,454.42236,425.052,480H390.948ZM296,32a88.09957,88.09957,0,0,1,88,88v24H368V120a72.07185,72.07185,0,0,0-60.09137-71.00983,104.77985,104.77985,0,0,0-19.95142-16.61871C290.621,32.13055,293.30255,32,296,32ZM144,120a88,88,0,0,1,176,0v56H304V120a72,72,0,0,0-144,0v56H144Zm48,24H176V120a56.01989,56.01989,0,0,1,27.99457-48.463A103.923,103.923,0,0,0,192,120Zm16-24a87.88228,87.88228,0,0,1,20.00531-55.84174C229.32642,64.06458,230.65546,64,232,64a55.80512,55.80512,0,0,1,16.01245,2.34491A72.27316,72.27316,0,0,0,224,120v24H208Zm32,0a56.22745,56.22745,0,0,1,23.97418-45.935A55.96534,55.96534,0,0,1,288,120v24H240ZM96,160h32v24a7.99977,7.99977,0,0,0,8,8h32a7.99977,7.99977,0,0,0,8-8V160H288v24a7.99977,7.99977,0,0,0,8,8h32a7.99977,7.99977,0,0,0,8-8V160h32V480H96Z"/><path d="M341.14648,249.875a8.00157,8.00157,0,0,0-8.3955-1.18555l-55.66065,24.73828a53.29017,53.29017,0,0,1-29.58594,4.00831l-18.94482-2.8418a69.35958,69.35958,0,0,0-79.22314,60.93213l-4.73121,42.58239-15.46508,25.775,13.71972,8.23242,11.47687-19.12829,27.52265,7.86364a118.4608,118.4608,0,0,0,147.46679-85.17187l14.43506-57.73926A8.001,8.001,0,0,0,341.14648,249.875ZM183.95117,302.32861A53.37883,53.37883,0,0,1,226.186,290.41748l18.94433,2.8418a69.26251,69.26251,0,0,0,38.458-5.21045l33.80109-15.02277-.6634,1.19415A89.05125,89.05125,0,0,1,238.92236,320a105.59979,105.59979,0,0,0-75.30456,31.8833l1.621-14.58984A53.1342,53.1342,0,0,1,183.95117,302.32861Zm47.29639,85.68653a103.091,103.091,0,0,1-44.99268-2.54834L162.868,378.7851A89.4528,89.4528,0,0,1,238.92285,336a105.07294,105.07294,0,0,0,77.32208-33.96576l-2.44122,9.76459A102.42453,102.42453,0,0,1,231.24756,388.01514Z"/></g></svg>
